<svg width="96" height="96" aria-hidden="true" xmlns="http://www.w3.org/2000/svg" viewBox="0 0 96 96" fill="currentColor">
<path fillRule="evenodd" clipRule="evenodd" d="M82.0601 59.68L83.9501 60.32C77.7044 78.5599 58.7893 89.2321 39.9474 85.147C21.1056 81.0618 8.30893 63.514 10.1783 44.3252C12.0477 25.1365 27.9906 10.3886 47.2667 10.0169C66.5427 9.64519 83.0423 23.7675 85.6501 42.87L83.6501 43.13C81.1726 25.0357 65.5387 11.6634 47.2791 12.0204C29.0195 12.3774 13.9203 26.3506 12.152 44.5279C10.3837 62.7052 22.5066 79.3265 40.3551 83.1962C58.2035 87.0658 76.1216 76.9575 82.0401 59.68H82.0601Z" fill="currentColor"/>
<path fillRule="evenodd" clipRule="evenodd" d="M80.2499 46C78.1512 46.0003 76.22 47.146 75.2137 48.9878C74.2074 50.8295 74.2865 53.0737 75.4199 54.84C69.5099 59.14 61.0199 62.58 51.8399 64.36C51.387 63.2349 50.5887 62.2825 49.5599 61.64C51.3543 58.7596 52.9352 55.7515 54.2899 52.64C56.8722 46.7018 58.8327 40.5121 60.1399 34.17C62.1099 33.8283 63.7609 32.4878 64.4999 30.63C68.8681 31.2784 73.138 32.471 77.2099 34.18L77.9999 32.32C73.8008 30.5625 69.4009 29.3299 64.8999 28.65C64.8999 28.65 64.8999 28.55 64.8999 28.5C64.8996 26.1807 63.5083 24.0879 61.3699 23.19C61.4054 21.1701 61.1836 19.1539 60.7099 17.19L58.7799 17.71C59.1819 19.3733 59.3833 21.0788 59.3799 22.79H59.1599C56.237 22.7916 53.7804 24.9858 53.4499 27.89C50.5745 27.9406 47.7081 28.2282 44.8799 28.75C30.8799 31.38 20.7599 39.16 14.6899 45.22L16.1099 46.64C21.9999 40.74 31.7899 33.21 45.2599 30.67C48.0095 30.1681 50.7954 29.8905 53.5899 29.84C54.1258 32.0415 55.9026 33.7244 58.1299 34.14C56.833 40.2118 54.9302 46.1381 52.4499 51.83C51.0898 54.9444 49.4987 57.9528 47.6899 60.83C47.3019 60.749 46.9064 60.7088 46.5099 60.71C43.792 60.7136 41.4477 62.6199 40.8899 65.28C33.7838 65.2817 26.726 64.1127 19.9999 61.82L19.2999 63.7C26.243 66.0623 33.526 67.2717 40.8599 67.28C40.9515 67.9824 41.1754 68.6611 41.5199 69.28C39.1983 72.0241 36.6088 74.5298 33.7899 76.76L34.9999 78.31C37.8329 76.0712 40.4388 73.5591 42.7799 70.81C44.482 72.2719 46.8799 72.6081 48.9184 71.6706C50.9568 70.7331 52.2622 68.6937 52.2599 66.45C52.2599 66.39 52.2599 66.33 52.2599 66.27C61.7999 64.41 70.6499 60.79 76.7999 56.27C78.7882 57.8168 81.5526 57.8865 83.6163 56.4418C85.6799 54.9972 86.5605 52.3758 85.7876 49.9783C85.0146 47.5807 82.7688 45.9673 80.2499 46ZM55.4199 28.5C55.4229 28.2783 55.4463 28.0574 55.4899 27.84C55.8051 26.054 57.3563 24.7515 59.1699 24.75H59.3699C60.0677 24.7815 60.7415 25.0142 61.3099 25.42C62.2672 26.0913 62.8555 27.1716 62.8999 28.34C62.8999 28.39 62.8999 28.43 62.8999 28.48C62.889 30.541 61.2209 32.2091 59.1599 32.22C58.9382 32.2176 58.7172 32.1941 58.4999 32.15C56.724 31.8244 55.4282 30.2854 55.4099 28.48L55.4199 28.5ZM46.5099 70.2C44.8615 70.1752 43.4182 69.0877 42.9399 67.51C42.9087 67.4248 42.882 67.338 42.8599 67.25C42.7993 66.9877 42.7691 66.7192 42.7699 66.45C42.7794 66.0433 42.8571 65.641 42.9999 65.26C43.5008 63.7573 44.8962 62.7349 46.4799 62.71C47.1877 62.7026 47.8824 62.9006 48.4799 63.28C49.0278 63.6242 49.4787 64.1027 49.7899 64.67C50.0945 65.2141 50.2562 65.8265 50.2599 66.45C50.2599 66.51 50.2599 66.56 50.2599 66.61C50.1742 68.6183 48.5201 70.2018 46.5099 70.2ZM80.2499 55.43C78.1857 55.4245 76.5163 53.7476 76.52 51.6834C76.5236 49.6191 78.199 47.9482 80.2633 47.95C82.3275 47.9519 83.9999 49.6258 83.9999 51.69C83.9944 53.7572 82.3171 55.43 80.2499 55.43Z" fill="currentColor"/>
</svg>