<svg width="96" height="96" aria-hidden="true" xmlns="http://www.w3.org/2000/svg" viewBox="0 0 96 96" fill="currentColor">
<path fillRule="evenodd" clipRule="evenodd" d="M48 52.74L48.71 52.03C49.3 51.44 63.32 37.37 63.32 25.23C63.32 16.769 56.461 9.90997 48 9.90997C39.539 9.90997 32.68 16.769 32.68 25.23C32.68 37.37 46.68 51.44 47.29 52.03L48 52.74ZM48 12C55.3282 11.9834 61.2869 17.9018 61.32 25.23C61.32 35.05 50.85 46.86 48 49.88C45.15 46.88 34.68 35.05 34.68 25.23C34.7131 17.9018 40.6718 11.9834 48 12ZM90 35.1V73.41C90.0003 75.3115 89.0992 77.1007 87.5711 78.2324C86.043 79.3642 84.0689 79.7046 82.25 79.15L62.93 73.25L32 78.18L31.81 78.13L10.6 73.05C7.90376 72.403 6.00203 69.9928 6 67.22V28.92C5.99758 27.0156 6.89938 25.2231 8.43 24.09C9.95387 22.9489 11.9335 22.6103 13.75 23.18L30.29 28.23L29.71 30.14L13.17 25.09C11.9564 24.7188 10.6387 24.9455 9.61894 25.7009C8.5992 26.4564 7.99844 27.6509 8 28.92V67.22C8.00018 69.0707 9.26998 70.6797 11.07 71.11L31 75.89V41H33V76L62 71.38V41H64V71.49L82.83 77.23C84.0419 77.6007 85.3578 77.3751 86.377 76.622C87.3963 75.8689 87.9984 74.6773 88 73.41V35.1C87.9998 33.2492 86.73 31.6403 84.93 31.21L66.12 26.7L66.59 24.75L85.4 29.27C88.0962 29.917 89.998 32.3272 90 35.1Z" fill="currentColor"/>
<path fillRule="evenodd" clipRule="evenodd" d="M48 33.8C43.8358 33.8 40.46 30.4242 40.46 26.26C40.46 22.0957 43.8358 18.72 48 18.72C52.1642 18.72 55.54 22.0957 55.54 26.26C55.5345 30.4219 52.1619 33.7945 48 33.8ZM48 20.72C44.9403 20.72 42.46 23.2003 42.46 26.26C42.46 29.3196 44.9403 31.8 48 31.8C51.0597 31.8 53.54 29.3196 53.54 26.26C53.5345 23.2026 51.0574 20.7255 48 20.72Z" fill="currentColor"/>
</svg>